<?xml version="1.0" standalone="no"?>
<!DOCTYPE svg PUBLIC "-//W3C//DTD SVG 20010904//EN"
 "http://www.w3.org/TR/2001/REC-SVG-20010904/DTD/svg10.dtd">
<svg version="1.0" xmlns="http://www.w3.org/2000/svg"
 width="700.000000pt" height="700.000000pt" viewBox="0 0 700.000000 700.000000"
 preserveAspectRatio="xMidYMid meet">
<metadata>
Created by potrace 1.11, written by Peter Selinger 2001-2013
</metadata>
<g transform="translate(0.000000,700.000000) scale(0.100000,-0.100000)"
fill="#000000" stroke="none">
<path d="M2770 5592 c-81 -5 -310 -41 -393 -62 -636 -160 -1127 -561 -1421
-1165 -165 -336 -222 -596 -220 -1000 0 -198 7 -272 35 -415 26 -137 26 -134
60 -244 121 -393 396 -795 733 -1071 281 -230 698 -415 1034 -460 211 -28 472
-26 652 4 106 18 126 22 200 41 375 96 696 285 1000 589 143 143 249 274 372
458 94 142 147 232 228 393 24 47 44 86 45 88 2 2 33 -16 69 -40 l67 -43 -5
-50 c-3 -27 -14 -115 -26 -195 -32 -228 -39 -281 -45 -320 -2 -14 -9 -61 -15
-106 -6 -44 -12 -89 -14 -100 -2 -10 -7 -48 -12 -84 -4 -36 -8 -67 -9 -70 -1
-3 -5 -34 -9 -70 -5 -36 -10 -74 -12 -85 -2 -10 -6 -37 -9 -60 -5 -38 -12 -89
-20 -145 -2 -14 -7 -49 -10 -79 -4 -30 -8 -61 -10 -70 -4 -19 -22 -150 -29
-206 -3 -22 -8 -56 -11 -75 -5 -31 -3 -36 15 -37 35 -3 36 0 40 180 2 91 5
109 20 117 34 18 39 -8 34 -159 l-5 -142 28 3 c31 3 27 -14 33 188 3 99 6 110
30 110 27 0 30 -20 24 -165 -3 -74 -2 -135 3 -136 4 0 16 -2 26 -4 9 -2 17 0
18 3 4 34 7 94 9 180 2 91 5 104 22 113 11 6 23 8 26 4 4 -4 7 -73 7 -153 0
-145 0 -147 23 -150 13 -2 23 2 23 10 3 23 6 91 10 186 2 75 6 95 20 103 32
17 38 -10 32 -160 l-5 -143 28 4 29 3 3 125 c3 158 6 172 35 168 22 -3 22 -5
19 -149 -2 -137 -1 -147 17 -152 31 -8 36 4 38 78 4 208 5 213 22 218 38 9 40
1 35 -152 l-5 -148 27 1 28 1 4 135 c1 74 5 141 7 148 3 7 15 12 27 10 23 -3
23 -4 20 -151 l-3 -147 35 0 c33 0 34 1 30 33 -2 17 -6 54 -9 82 -3 27 -7 68
-10 90 -3 22 -8 56 -10 75 -3 19 -7 58 -10 85 -3 28 -7 67 -10 88 -6 43 -11
89 -20 167 -9 79 -14 125 -20 168 -10 75 -15 118 -20 172 -3 30 -8 66 -10 80
-3 14 -7 50 -10 80 -3 30 -8 73 -10 95 -3 22 -7 56 -10 75 -4 33 -17 149 -31
264 -3 27 -7 57 -9 67 -2 9 -6 49 -10 87 l-6 69 33 13 c44 18 128 81 161 120
38 44 79 116 100 175 25 66 30 212 11 283 -39 146 -143 273 -276 335 l-74 35
2 114 c1 62 5 275 9 473 5 341 11 516 20 595 4 39 12 129 31 365 12 145 2 184
-51 210 -30 13 -101 15 -570 16 -532 0 -536 -1 -566 -22 -38 -26 -47 -50 -54
-136 -6 -72 -12 -126 -20 -183 -5 -35 -8 -65 -20 -169 -4 -30 -8 -62 -10 -72
-2 -10 -7 -49 -10 -86 -4 -37 -8 -75 -10 -83 -2 -8 -7 -44 -10 -80 -3 -36 -8
-76 -10 -90 -3 -14 -7 -38 -9 -55 -2 -16 -7 -48 -11 -70 -3 -22 -7 -53 -9 -70
-19 -148 -87 -438 -148 -624 -119 -368 -273 -630 -504 -857 -171 -170 -324
-257 -524 -299 -72 -16 -249 -21 -300 -10 -14 3 -38 8 -55 10 -129 23 -284
106 -398 214 -53 50 -157 179 -157 195 0 3 -11 24 -24 44 -21 34 -63 150 -82
229 -4 16 -8 94 -10 174 -2 117 2 166 18 240 66 310 249 513 558 621 150 52
351 59 510 18 183 -47 397 -174 559 -330 46 -45 94 -85 107 -90 50 -19 117 12
133 63 8 26 100 470 115 557 2 14 13 75 24 135 12 61 28 155 37 210 9 55 18
113 21 129 3 16 7 33 10 37 2 4 7 42 11 83 5 64 2 81 -16 119 -25 52 -55 74
-201 150 -58 30 -143 75 -190 99 -101 54 -319 127 -455 153 -163 31 -397 47
-545 37z"/>
</g>
</svg>
